# xmcd CD database file
#
# Track frame offsets:
#	150
#	39150
#	56925
#	81975
#	108825
#	134063
#	154463
#	181051
#
# Disc length: 2769 seconds
#
# Revision: 0
# Processed by: cddbd v1.5.1PL2 Copyright (c) Steve Scherf et al.
# Submitted via: CDex 1.51
#
DISCID=6a0acf08
DTITLE=EMP Project - Wherever We Go
DYEAR=2005
DGENRE=Jazz
TTITLE0=Wherever We Go
TTITLE1=Only You Know
TTITLE2=Just Visiting
TTITLE3=Fused
TTITLE4=Chances
TTITLE5=The Day That Never Was
TTITLE6=Shorterisms
TTITLE7=Synergy
EXTD=YEAR: 2005
EXTT0=
EXTT1=
EXTT2=
EXTT3=
EXTT4=
EXTT5=
EXTT6=
EXTT7=
PLAYORDER=
